#N canvas 520 23 717 563 12;
#X msg 110 93 listen 0;
#X obj 25 127 netreceive -u -b;
#X obj 24 176 route list;
#X obj 25 151 oscparse;
#X obj 23 202 list split 1;
#X obj 23 304 route dmx;
#X obj 23 328 list split 1;
#X obj 23 379 pack;
#X msg 216 70 const 0;
#X obj 23 254 list append;
#X obj 23 279 route 0;
#X obj 216 93 array define -yrange 0 255 univers_\$0 512;
#X obj 23 404 expr univers_\$0[$i1]=$f2*255;
#X obj 23 226 float;
#X obj 23 352 float;
#X msg 24 92 listen \$1;
#X obj 24 17 loadbang;
#X msg 134 47 9000;
#X obj 116 19 bng 15 250 50 0 empty empty empty 17 7 0 10 -262144 -1
-1;
#X obj 30 49 f \$1;
#X obj 339 213 inlet;
#X obj 338 319 array get univers_\$0;
#X obj 338 353 list prepend dmx;
#X obj 337 408 outlet;
#X obj 339 271 route bang;
#X connect 0 0 1 0;
#X connect 1 0 3 0;
#X connect 2 0 4 0;
#X connect 3 0 2 0;
#X connect 4 0 13 0;
#X connect 4 1 9 1;
#X connect 5 0 6 0;
#X connect 6 0 14 0;
#X connect 6 1 7 1;
#X connect 7 0 12 0;
#X connect 8 0 11 0;
#X connect 9 0 10 0;
#X connect 10 0 5 0;
#X connect 13 0 9 0;
#X connect 14 0 7 0;
#X connect 15 0 1 0;
#X connect 16 0 19 0;
#X connect 17 0 15 0;
#X connect 18 0 19 0;
#X connect 19 0 15 0;
#X connect 20 0 24 0;
#X connect 21 0 22 0;
#X connect 22 0 23 0;
#X connect 24 0 21 0;
