#N canvas 638 315 717 563 12;
#X obj 122 220 pd-ws/websocket-server;
#X msg 383 166 listen 9002;
#X obj 123 320 outlet;
#X obj 20 29 inlet;
#X msg 19 162 listen \$1;
#X obj 351 75 loadbang;
#X msg 353 280 init;
#X obj 240 316 stdout;
#X obj 36 57 r listen;
#X obj 48 87 r dmx;
#X obj 19 119 route listen dmx;
#X obj 99 163 list prepend dmx;
#X obj 351 100 del 10;
#X obj 351 124 t b b;
#X connect 0 0 2 0;
#X connect 0 0 7 0;
#X connect 1 0 0 2;
#X connect 3 0 10 0;
#X connect 4 0 0 2;
#X connect 5 0 12 0;
#X connect 6 0 2 0;
#X connect 6 0 7 0;
#X connect 8 0 10 0;
#X connect 9 0 10 0;
#X connect 10 0 4 0;
#X connect 10 1 11 0;
#X connect 10 2 0 0;
#X connect 11 0 0 0;
#X connect 12 0 13 0;
#X connect 13 0 6 0;
#X connect 13 1 1 0;
